<svg version="1.2" xmlns="http://www.w3.org/2000/svg" viewBox="0 0 124 24" width="124" height="24">
	<title>logo-svg</title>
	<style>
		.s0 { fill: #25564b } 
	</style>
	<path id="Layer" fill-rule="evenodd" class="s0" d="m0 14.5l3.7-0.8q0.4 1.6 2.2 1.6 1.2 0 1.2-0.7 0 0 0-0.1 0 0-0.1-0.1 0 0 0-0.1 0 0-0.1-0.1-0.1-0.1-0.7-0.3l-1.5-0.5-0.4-0.2q-0.5-0.1-0.7-0.2-0.3-0.2-0.8-0.4-0.5-0.3-0.8-0.5-0.3-0.3-0.7-0.7-0.3-0.4-0.5-0.9-0.2-0.5-0.2-1.1 0-1.9 1.6-3.1 1.5-1.2 3.8-1.2 3.8 0 5.1 3.3l-3.7 1.1q-0.5-1.1-1.5-1.1-0.8 0-0.8 0.6 0 0.1 0 0.2 0 0 0 0.1 0.1 0 0.1 0 0 0.1 0.1 0.1 0.2 0.2 0.7 0.3l1.4 0.6q4 1.4 4.1 4.2 0 2-1.6 3.1-1.6 1.1-4 1.1-5.2 0-5.9-4.2zm13-1.5v-7.6h5.1v7.1q0 2.2 1.5 2.2 1.5 0 1.5-2.2v-7.1h5.1v13h-5.1v-1.6q-1.2 1.9-3.6 1.9-4.5 0-4.5-5.7zm15.5 5.4v-13h5.1v1.6q1.2-1.9 3.6-1.9 4.6 0 4.6 5.7v7.6h-5.2v-7.1q0-2.2-1.5-2.2-1.5 0-1.5 2.2v7.1zm15.4 0v-13h5.1v1.6q1.2-1.9 3.6-1.9 4.6 0 4.6 5.7v7.6h-5.2v-7.1q0-2.2-1.5-2.2-1.5 0-1.5 2.2v7.1zm16.1 5.6l3-6.8-5.4-11.8h5.5l2.3 6.6 2.5-6.6h5.4l-8.3 18.6zm12.8-9.5l3.7-0.8q0.4 1.6 2.2 1.6 1.2 0 1.2-0.7 0 0 0-0.1 0 0-0.1-0.1 0 0 0-0.1 0 0-0.1-0.1-0.1-0.1-0.7-0.3l-1.5-0.5-0.4-0.2q-0.4-0.1-0.7-0.2-0.3-0.2-0.8-0.4-0.5-0.3-0.8-0.5-0.3-0.3-0.6-0.7-0.4-0.4-0.6-0.9-0.1-0.5-0.1-1.1 0-1.9 1.5-3.1 1.5-1.2 3.8-1.2 3.8 0 5.1 3.3l-3.7 1.1q-0.5-1.1-1.5-1.1-0.8 0-0.8 0.6 0 0.1 0 0.2 0 0 0.1 0.1 0 0 0 0 0.1 0.1 0.1 0.1 0.2 0.2 0.7 0.3l1.4 0.6q4 1.4 4.2 4.2 0 2-1.7 3.1-1.6 1.1-4 1.1-5.2 0-5.9-4.2zm13.6-10.6q-0.8-0.6-0.8-1.6 0-1 0.7-1.7 0.8-0.6 2.2-0.6 1.4 0 2.1 0.6 0.7 0.7 0.7 1.7 0 1-0.7 1.6-0.8 0.7-2.1 0.7-1.4 0-2.1-0.7zm-0.5 14.5v-13h5.1v13c0 0-5.1 0-5.1 0zm8.5-1.6q-1.8-1.9-1.8-4.9 0-3 1.8-4.9 1.7-1.9 4.4-1.9 2.6 0 3.7 1.9v-6.5h5.1v17.9h-5.1v-1.6q-1.1 1.9-3.7 1.9-2.7 0-4.4-1.9zm7.5-2.8q0.7-0.8 0.7-2.1 0-1.3-0.7-2.1-0.7-0.8-1.7-0.8-1.1 0-1.8 0.8-0.7 0.8-0.7 2.1 0 1.3 0.7 2.1 0.7 0.8 1.8 0.8 1 0 1.7-0.8zm9.4 2.8q-2.1-1.9-2.1-4.9 0-2.8 1.9-4.8 2-2 5.4-2 3.1 0 5.2 1.8 2 1.8 2 4.9 0 0.7-0.1 1.1h-9.7q0 0.6 1 1.3 0.9 0.7 2.4 0.7 2 0 3.5-1.3l2.1 2.8q-2.2 2.3-6 2.3-3.6 0-5.6-1.9zm7-7.6q-0.8-0.5-1.8-0.5-1 0-1.8 0.5-0.7 0.4-0.8 1.4h5.2q-0.1-0.9-0.8-1.4z"/>
</svg>